<?xml version="1.0" encoding="UTF-8" standalone="no"?>
<!-- Created with Inkscape (http://www.inkscape.org/) -->

<svg
   xmlns:dc="http://purl.org/dc/elements/1.1/"
   xmlns:cc="http://creativecommons.org/ns#"
   xmlns:rdf="http://www.w3.org/1999/02/22-rdf-syntax-ns#"
   xmlns:svg="http://www.w3.org/2000/svg"
   xmlns="http://www.w3.org/2000/svg"
   xmlns:sodipodi="http://sodipodi.sourceforge.net/DTD/sodipodi-0.dtd"
   xmlns:inkscape="http://www.inkscape.org/namespaces/inkscape"
   width="60"
   height="60"
   id="svg3209"
   version="1.1"
   inkscape:version="0.48.2 r9819"
   sodipodi:docname="blinky.svg">
  <title
     id="title3238">dead</title>
  <defs
     id="defs3211" />
  <sodipodi:namedview
     id="base"
     pagecolor="#ffffff"
     bordercolor="#666666"
     borderopacity="1.0"
     inkscape:pageopacity="0.0"
     inkscape:pageshadow="2"
     inkscape:zoom="1.4"
     inkscape:cx="56.727193"
     inkscape:cy="-67.066627"
     inkscape:document-units="px"
     inkscape:current-layer="layer1"
     showgrid="false"
     fit-margin-top="0"
     fit-margin-left="0"
     fit-margin-right="0"
     fit-margin-bottom="0"
     inkscape:window-width="1600"
     inkscape:window-height="838"
     inkscape:window-x="-8"
     inkscape:window-y="-8"
     inkscape:window-maximized="1" />
  <metadata
     id="metadata3214">
    <rdf:RDF>
      <cc:Work
         rdf:about="">
        <dc:format>image/svg+xml</dc:format>
        <dc:type
           rdf:resource="http://purl.org/dc/dcmitype/StillImage" />
        <dc:title>dead</dc:title>
      </cc:Work>
    </rdf:RDF>
  </metadata>
  <g
     inkscape:label="Ebene 1"
     inkscape:groupmode="layer"
     id="layer1"
     transform="translate(-620.1475,-462.09155)">
    <path
       sodipodi:type="arc"
       style="fill:#ffffff;fill-opacity:1"
       id="path3004"
       sodipodi:cx="498.92856"
       sodipodi:cy="598.61218"
       sodipodi:rx="8.9285717"
       sodipodi:ry="9.4642859"
       d="m 507.85713,598.61218 a 8.9285717,9.4642859 0 1 1 -17.85714,0 8.9285717,9.4642859 0 1 1 17.85714,0 z"
       transform="matrix(1.12,0,0,1.0188679,108.37794,-123.2272)" />
    <path
       sodipodi:type="arc"
       style="fill:#ffffff;fill-opacity:1"
       id="path3004-1"
       sodipodi:cx="498.92856"
       sodipodi:cy="598.61218"
       sodipodi:rx="8.9285717"
       sodipodi:ry="9.4642859"
       d="m 507.85713,598.61218 a 8.9285717,9.4642859 0 1 1 -17.85714,0 8.9285717,9.4642859 0 1 1 17.85714,0 z"
       transform="matrix(1.12,0,0,1.0188679,90.163666,-123.45806)" />
    <path
       sodipodi:type="arc"
       style="fill:#0000ff;fill-opacity:1"
       id="path3026"
       sodipodi:cx="482.2847"
       sodipodi:cy="598.23547"
       sodipodi:rx="2.841054"
       sodipodi:ry="2.9673231"
       d="m 485.12575,598.23547 a 2.841054,2.9673231 0 1 1 -5.68211,0 2.841054,2.9673231 0 1 1 5.68211,0 z"
       transform="matrix(1.7599103,0,0,1.6850204,-195.64467,-521.61325)" />
    <path
       sodipodi:type="arc"
       style="fill:#0000ff;fill-opacity:1"
       id="path3026-7"
       sodipodi:cx="482.2847"
       sodipodi:cy="598.23547"
       sodipodi:rx="2.841054"
       sodipodi:ry="2.9673231"
       d="m 485.12575,598.23547 a 2.841054,2.9673231 0 1 1 -5.68211,0 2.841054,2.9673231 0 1 1 5.68211,0 z"
       transform="matrix(1.7599103,0,0,1.6850204,-176.65359,-521.91655)" />
  </g>
</svg>
