<?xml version="1.0" encoding="UTF-8" standalone="no"?>
<!-- Created with Inkscape (http://www.inkscape.org/) -->

<svg
   xmlns:dc="http://purl.org/dc/elements/1.1/"
   xmlns:cc="http://creativecommons.org/ns#"
   xmlns:rdf="http://www.w3.org/1999/02/22-rdf-syntax-ns#"
   xmlns:svg="http://www.w3.org/2000/svg"
   xmlns="http://www.w3.org/2000/svg"
   xmlns:sodipodi="http://sodipodi.sourceforge.net/DTD/sodipodi-0.dtd"
   xmlns:inkscape="http://www.inkscape.org/namespaces/inkscape"
   width="60"
   height="60"
   id="svg3209"
   version="1.1"
   inkscape:version="0.48.2 r9819"
   sodipodi:docname="pinky">
  <title
     id="title3238">Inky</title>
  <defs
     id="defs3211" />
  <sodipodi:namedview
     id="base"
     pagecolor="#ffffff"
     bordercolor="#666666"
     borderopacity="1.0"
     inkscape:pageopacity="0.0"
     inkscape:pageshadow="2"
     inkscape:zoom="1.4"
     inkscape:cx="56.727193"
     inkscape:cy="-67.066627"
     inkscape:document-units="px"
     inkscape:current-layer="g3048"
     showgrid="false"
     fit-margin-top="0"
     fit-margin-left="0"
     fit-margin-right="0"
     fit-margin-bottom="0"
     inkscape:window-width="1920"
     inkscape:window-height="1148"
     inkscape:window-x="-8"
     inkscape:window-y="-8"
     inkscape:window-maximized="1" />
  <metadata
     id="metadata3214">
    <rdf:RDF>
      <cc:Work
         rdf:about="">
        <dc:format>image/svg+xml</dc:format>
        <dc:type
           rdf:resource="http://purl.org/dc/dcmitype/StillImage" />
        <dc:title>Inky</dc:title>
      </cc:Work>
    </rdf:RDF>
  </metadata>
  <g
     inkscape:label="Ebene 1"
     inkscape:groupmode="layer"
     id="layer1"
     transform="translate(-620.1475,-462.09155)">
    <g
       id="g3048"
       inkscape:label="#blinky"
       transform="translate(169.6996,-110.9135)"
       inkscape:export-xdpi="90"
       inkscape:export-ydpi="90">
      <title
         id="title3056">Blinky</title>
      <path
         inkscape:label="#Blinky"
         style="fill:#80e5ff"
         d="m 453.98527,630.78254 c -1.20261,-1.71697 -1.55219,-4.9583 -1.53689,-14.25 0.0359,-21.77874 2.19013,-29.87068 9.77706,-36.72501 5.18333,-4.68283 10.07002,-6.27246 19.24739,-6.26115 6.37329,0.008 8.45651,0.47101 13.42172,2.98399 11.10162,5.61871 13.56334,12.02522 14.22783,37.02721 0.37412,14.07623 0.26991,15.17032 -1.60658,16.86853 -2.62623,2.3767 -5.53748,1.59732 -10.77301,-2.8841 -2.27268,-1.94533 -4.53179,-3.53696 -5.02024,-3.53696 -0.48844,0 -2.64574,1.8 -4.79398,4 -2.14824,2.2 -4.66557,4 -5.59406,4 -0.9285,0 -3.86642,-1.8 -6.52873,-4 -5.38287,-4.44815 -6.50891,-4.75708 -8.50477,-2.33328 -1.68026,2.04055 -8.87298,7.33328 -9.96577,7.33328 -0.4363,0 -1.49378,-1.00013 -2.34997,-2.22251 z m 28.75904,-24.89453 c 1.20134,-0.61437 2.89994,-2.01574 3.77466,-3.11415 1.57615,-1.97921 1.61346,-1.97404 4.16388,0.57638 3.54047,3.54047 7.20236,4.28434 11.35124,2.30588 3.99841,-1.90671 4.67607,-5.32912 1.1547,-5.83152 -2.47068,-0.35249 -3.68426,-3.59046 -1.58413,-4.22664 4.84428,-1.46744 4.92389,-1.53759 3.90525,-3.44092 -1.36593,-2.55226 -6.46932,-4.52241 -9.64805,-3.7246 -1.43304,0.35967 -3.73322,1.78163 -5.11151,3.15992 l -2.50598,2.50598 -2.32267,-2.5062 c -4.5492,-4.90867 -12.1154,-4.15202 -15.04029,1.5041 -1.77559,3.43363 -1.79018,5.67231 -0.0573,8.79874 2.44707,4.41505 7.67237,6.16541 11.92024,3.99303 z m -0.93574,-7.33507 c -0.7754,-2.02068 0.3778,-3.54789 2.67902,-3.54789 1.40371,0 1.94098,0.692 1.94098,2.5 0,1.84621 -0.53124,2.5 -2.03139,2.5 -1.11726,0 -2.28213,-0.65345 -2.58861,-1.45211 z"
         id="Blinky"
         inkscape:connector-curvature="0">
        <title
           id="title3046">Blinky</title>
      </path>
      <path
         transform="matrix(1.12,0,0,1.0188679,-61.321661,-12.313696)"
         d="m 507.85713,598.61218 c 0,5.22698 -3.99746,9.46429 -8.92857,9.46429 -4.93112,0 -8.92857,-4.23731 -8.92857,-9.46429 0,-5.22698 3.99745,-9.46428 8.92857,-9.46428 4.93111,0 8.92857,4.2373 8.92857,9.46428 z"
         sodipodi:ry="9.4642859"
         sodipodi:rx="8.9285717"
         sodipodi:cy="598.61218"
         sodipodi:cx="498.92856"
         id="path3004"
         style="fill:#ffffff;fill-opacity:1"
         sodipodi:type="arc" />
      <path
         transform="matrix(1.12,0,0,1.0188679,-79.535934,-12.544555)"
         d="m 507.85713,598.61218 c 0,5.22698 -3.99746,9.46429 -8.92857,9.46429 -4.93112,0 -8.92857,-4.23731 -8.92857,-9.46429 0,-5.22698 3.99745,-9.46428 8.92857,-9.46428 4.93111,0 8.92857,4.2373 8.92857,9.46428 z"
         sodipodi:ry="9.4642859"
         sodipodi:rx="8.9285717"
         sodipodi:cy="598.61218"
         sodipodi:cx="498.92856"
         id="path3004-1"
         style="fill:#ffffff;fill-opacity:1"
         sodipodi:type="arc" />
      <path
         transform="matrix(1.7599103,0,0,1.6850204,-365.34427,-410.69975)"
         d="m 485.12575,598.23547 c 0,1.63881 -1.27198,2.96733 -2.84105,2.96733 -1.56907,0 -2.84106,-1.32852 -2.84106,-2.96733 0,-1.6388 1.27199,-2.96732 2.84106,-2.96732 1.56907,0 2.84105,1.32852 2.84105,2.96732 z"
         sodipodi:ry="2.9673231"
         sodipodi:rx="2.841054"
         sodipodi:cy="598.23547"
         sodipodi:cx="482.2847"
         id="path3026"
         style="fill:#0000ff;fill-opacity:1"
         sodipodi:type="arc" />
      <path
         transform="matrix(1.7599103,0,0,1.6850204,-346.35319,-411.00305)"
         d="m 485.12575,598.23547 c 0,1.63881 -1.27198,2.96733 -2.84105,2.96733 -1.56907,0 -2.84106,-1.32852 -2.84106,-2.96733 0,-1.6388 1.27199,-2.96732 2.84106,-2.96732 1.56907,0 2.84105,1.32852 2.84105,2.96732 z"
         sodipodi:ry="2.9673231"
         sodipodi:rx="2.841054"
         sodipodi:cy="598.23547"
         sodipodi:cx="482.2847"
         id="path3026-7"
         style="fill:#0000ff;fill-opacity:1"
         sodipodi:type="arc" />
    </g>
  </g>
</svg>
